<?xml version="1.0" encoding="UTF-8"?>
<svg width="300px" height="300px" viewBox="0 0 300 300" version="1.1" xmlns="http://www.w3.org/2000/svg" xmlns:xlink="http://www.w3.org/1999/xlink">
    <!-- Generator: Sketch 49 (51002) - http://www.bohemiancoding.com/sketch -->
    <title>StarsLeft</title>
    <desc>Created with Sketch.</desc>
    <defs></defs>
    <g id="Landing-Page-2" stroke="none" stroke-width="1" fill="none" fill-rule="evenodd">
        <g id="StarsLeft" fill="#3C4CD2">
            <g transform="translate(15.000000, 19.000000)">
                <g id="STARS">
                    <path d="M3.054,46.661 C1.548,46.661 0.327,45.44 0.327,43.935 C0.327,42.429 1.548,41.208 3.054,41.208 C11.022,41.208 17.505,34.726 17.505,26.756 C17.505,25.25 18.726,24.029 20.232,24.029 C21.738,24.029 22.958,25.25 22.958,26.756 C22.958,37.731 14.029,46.661 3.054,46.661" id="Fill-1"></path>
                    <path d="M37.411,46.661 C26.435,46.661 17.505,37.731 17.505,26.756 C17.505,25.25 18.726,24.029 20.232,24.029 C21.738,24.029 22.958,25.25 22.958,26.756 C22.958,34.726 29.442,41.208 37.411,41.208 C38.917,41.208 40.137,42.429 40.137,43.935 C40.137,45.44 38.917,46.661 37.411,46.661" id="Fill-2"></path>
                    <path d="M20.232,63.838 C18.726,63.838 17.505,62.617 17.505,61.112 C17.505,50.137 26.435,41.208 37.411,41.208 C38.917,41.208 40.137,42.429 40.137,43.935 C40.137,45.44 38.917,46.661 37.411,46.661 C29.442,46.661 22.958,53.143 22.958,61.112 C22.958,62.617 21.738,63.838 20.232,63.838" id="Fill-3"></path>
                    <path d="M20.232,63.838 C18.726,63.838 17.505,62.617 17.505,61.112 C17.505,53.143 11.022,46.661 3.054,46.661 C1.548,46.661 0.327,45.44 0.327,43.935 C0.327,42.429 1.548,41.208 3.054,41.208 C14.029,41.208 22.958,50.137 22.958,61.112 C22.958,62.617 21.738,63.838 20.232,63.838" id="Fill-4"></path>
                    <path d="M32.612,16.799 C31.608,16.799 30.794,15.986 30.794,14.982 C30.794,13.977 31.608,13.164 32.612,13.164 C38.802,13.164 43.838,8.128 43.838,1.937 C43.838,0.932 44.652,0.119 45.656,0.119 C46.66,0.119 47.474,0.932 47.474,1.937 C47.474,10.132 40.807,16.799 32.612,16.799" id="Fill-5"></path>
                    <path d="M58.701,16.799 C50.505,16.799 43.838,10.132 43.838,1.937 C43.838,0.932 44.652,0.119 45.656,0.119 C46.66,0.119 47.474,0.932 47.474,1.937 C47.474,8.128 52.51,13.164 58.701,13.164 C59.705,13.164 60.518,13.977 60.518,14.982 C60.518,15.986 59.705,16.799 58.701,16.799" id="Fill-6"></path>
                    <path d="M45.656,29.844 C44.652,29.844 43.838,29.031 43.838,28.027 C43.838,19.831 50.505,13.164 58.701,13.164 C59.705,13.164 60.518,13.977 60.518,14.982 C60.518,15.986 59.705,16.799 58.701,16.799 C52.51,16.799 47.474,21.835 47.474,28.027 C47.474,29.031 46.66,29.844 45.656,29.844" id="Fill-7"></path>
                    <path d="M45.656,29.844 C44.652,29.844 43.838,29.031 43.838,28.027 C43.838,21.835 38.802,16.799 32.612,16.799 C31.608,16.799 30.794,15.986 30.794,14.982 C30.794,13.977 31.608,13.164 32.612,13.164 C40.807,13.164 47.474,19.831 47.474,28.027 C47.474,29.031 46.66,29.844 45.656,29.844" id="Fill-8"></path>
                </g>
                <g id="STARS-Copy" transform="translate(209.000000, 69.000000)">
                    <path d="M3.054,46.661 C1.548,46.661 0.327,45.44 0.327,43.935 C0.327,42.429 1.548,41.208 3.054,41.208 C11.022,41.208 17.505,34.726 17.505,26.756 C17.505,25.25 18.726,24.029 20.232,24.029 C21.738,24.029 22.958,25.25 22.958,26.756 C22.958,37.731 14.029,46.661 3.054,46.661" id="Fill-1"></path>
                    <path d="M37.411,46.661 C26.435,46.661 17.505,37.731 17.505,26.756 C17.505,25.25 18.726,24.029 20.232,24.029 C21.738,24.029 22.958,25.25 22.958,26.756 C22.958,34.726 29.442,41.208 37.411,41.208 C38.917,41.208 40.137,42.429 40.137,43.935 C40.137,45.44 38.917,46.661 37.411,46.661" id="Fill-2"></path>
                    <path d="M20.232,63.838 C18.726,63.838 17.505,62.617 17.505,61.112 C17.505,50.137 26.435,41.208 37.411,41.208 C38.917,41.208 40.137,42.429 40.137,43.935 C40.137,45.44 38.917,46.661 37.411,46.661 C29.442,46.661 22.958,53.143 22.958,61.112 C22.958,62.617 21.738,63.838 20.232,63.838" id="Fill-3"></path>
                    <path d="M20.232,63.838 C18.726,63.838 17.505,62.617 17.505,61.112 C17.505,53.143 11.022,46.661 3.054,46.661 C1.548,46.661 0.327,45.44 0.327,43.935 C0.327,42.429 1.548,41.208 3.054,41.208 C14.029,41.208 22.958,50.137 22.958,61.112 C22.958,62.617 21.738,63.838 20.232,63.838" id="Fill-4"></path>
                    <path d="M32.612,16.799 C31.608,16.799 30.794,15.986 30.794,14.982 C30.794,13.977 31.608,13.164 32.612,13.164 C38.802,13.164 43.838,8.128 43.838,1.937 C43.838,0.932 44.652,0.119 45.656,0.119 C46.66,0.119 47.474,0.932 47.474,1.937 C47.474,10.132 40.807,16.799 32.612,16.799" id="Fill-5"></path>
                    <path d="M58.701,16.799 C50.505,16.799 43.838,10.132 43.838,1.937 C43.838,0.932 44.652,0.119 45.656,0.119 C46.66,0.119 47.474,0.932 47.474,1.937 C47.474,8.128 52.51,13.164 58.701,13.164 C59.705,13.164 60.518,13.977 60.518,14.982 C60.518,15.986 59.705,16.799 58.701,16.799" id="Fill-6"></path>
                    <path d="M45.656,29.844 C44.652,29.844 43.838,29.031 43.838,28.027 C43.838,19.831 50.505,13.164 58.701,13.164 C59.705,13.164 60.518,13.977 60.518,14.982 C60.518,15.986 59.705,16.799 58.701,16.799 C52.51,16.799 47.474,21.835 47.474,28.027 C47.474,29.031 46.66,29.844 45.656,29.844" id="Fill-7"></path>
                    <path d="M45.656,29.844 C44.652,29.844 43.838,29.031 43.838,28.027 C43.838,21.835 38.802,16.799 32.612,16.799 C31.608,16.799 30.794,15.986 30.794,14.982 C30.794,13.977 31.608,13.164 32.612,13.164 C40.807,13.164 47.474,19.831 47.474,28.027 C47.474,29.031 46.66,29.844 45.656,29.844" id="Fill-8"></path>
                </g>
                <g id="STARS-Copy-2" transform="translate(61.000000, 199.000000)">
                    <path d="M3.054,46.661 C1.548,46.661 0.327,45.44 0.327,43.935 C0.327,42.429 1.548,41.208 3.054,41.208 C11.022,41.208 17.505,34.726 17.505,26.756 C17.505,25.25 18.726,24.029 20.232,24.029 C21.738,24.029 22.958,25.25 22.958,26.756 C22.958,37.731 14.029,46.661 3.054,46.661" id="Fill-1"></path>
                    <path d="M37.411,46.661 C26.435,46.661 17.505,37.731 17.505,26.756 C17.505,25.25 18.726,24.029 20.232,24.029 C21.738,24.029 22.958,25.25 22.958,26.756 C22.958,34.726 29.442,41.208 37.411,41.208 C38.917,41.208 40.137,42.429 40.137,43.935 C40.137,45.44 38.917,46.661 37.411,46.661" id="Fill-2"></path>
                    <path d="M20.232,63.838 C18.726,63.838 17.505,62.617 17.505,61.112 C17.505,50.137 26.435,41.208 37.411,41.208 C38.917,41.208 40.137,42.429 40.137,43.935 C40.137,45.44 38.917,46.661 37.411,46.661 C29.442,46.661 22.958,53.143 22.958,61.112 C22.958,62.617 21.738,63.838 20.232,63.838" id="Fill-3"></path>
                    <path d="M20.232,63.838 C18.726,63.838 17.505,62.617 17.505,61.112 C17.505,53.143 11.022,46.661 3.054,46.661 C1.548,46.661 0.327,45.44 0.327,43.935 C0.327,42.429 1.548,41.208 3.054,41.208 C14.029,41.208 22.958,50.137 22.958,61.112 C22.958,62.617 21.738,63.838 20.232,63.838" id="Fill-4"></path>
                    <path d="M32.612,16.799 C31.608,16.799 30.794,15.986 30.794,14.982 C30.794,13.977 31.608,13.164 32.612,13.164 C38.802,13.164 43.838,8.128 43.838,1.937 C43.838,0.932 44.652,0.119 45.656,0.119 C46.66,0.119 47.474,0.932 47.474,1.937 C47.474,10.132 40.807,16.799 32.612,16.799" id="Fill-5"></path>
                    <path d="M58.701,16.799 C50.505,16.799 43.838,10.132 43.838,1.937 C43.838,0.932 44.652,0.119 45.656,0.119 C46.66,0.119 47.474,0.932 47.474,1.937 C47.474,8.128 52.51,13.164 58.701,13.164 C59.705,13.164 60.518,13.977 60.518,14.982 C60.518,15.986 59.705,16.799 58.701,16.799" id="Fill-6"></path>
                    <path d="M45.656,29.844 C44.652,29.844 43.838,29.031 43.838,28.027 C43.838,19.831 50.505,13.164 58.701,13.164 C59.705,13.164 60.518,13.977 60.518,14.982 C60.518,15.986 59.705,16.799 58.701,16.799 C52.51,16.799 47.474,21.835 47.474,28.027 C47.474,29.031 46.66,29.844 45.656,29.844" id="Fill-7"></path>
                    <path d="M45.656,29.844 C44.652,29.844 43.838,29.031 43.838,28.027 C43.838,21.835 38.802,16.799 32.612,16.799 C31.608,16.799 30.794,15.986 30.794,14.982 C30.794,13.977 31.608,13.164 32.612,13.164 C40.807,13.164 47.474,19.831 47.474,28.027 C47.474,29.031 46.66,29.844 45.656,29.844" id="Fill-8"></path>
                </g>
                <g id="MOON-2" transform="translate(92.000000, 70.000000)">
                    <path d="M29.999,26.573 C26.971,26.573 24.507,24.109 24.507,21.081 C24.507,18.053 26.971,15.589 29.999,15.589 C33.029,15.589 35.492,18.053 35.492,21.081 C35.492,24.109 33.029,26.573 29.999,26.573 L29.999,26.573 Z M29.999,19.224 C28.975,19.224 28.143,20.057 28.143,21.081 C28.143,22.105 28.975,22.938 29.999,22.938 C31.024,22.938 31.857,22.105 31.857,21.081 C31.857,20.057 31.024,19.224 29.999,19.224 L29.999,19.224 Z" id="Fill-1"></path>
                    <path d="M46.261,55.776 C43.232,55.776 40.769,53.312 40.769,50.284 C40.769,47.256 43.232,44.792 46.261,44.792 C49.289,44.792 51.753,47.256 51.753,50.284 C51.753,53.312 49.289,55.776 46.261,55.776 L46.261,55.776 Z M46.261,48.427 C45.237,48.427 44.404,49.26 44.404,50.284 C44.404,51.308 45.237,52.141 46.261,52.141 C47.285,52.141 48.117,51.308 48.117,50.284 C48.117,49.26 47.285,48.427 46.261,48.427 L46.261,48.427 Z" id="Fill-2"></path>
                    <path d="M22.94,49.594 C17.542,49.594 13.151,45.202 13.151,39.804 C13.151,34.406 17.542,30.015 22.94,30.015 C28.338,30.015 32.729,34.406 32.729,39.804 C32.729,45.202 28.338,49.594 22.94,49.594 L22.94,49.594 Z M22.94,33.65 C19.547,33.65 16.786,36.41 16.786,39.804 C16.786,43.198 19.547,45.958 22.94,45.958 C26.333,45.958 29.094,43.198 29.094,39.804 C29.094,36.41 26.333,33.65 22.94,33.65 L22.94,33.65 Z" id="Fill-3"></path>
                    <path d="M31.823,62.839 C18.251,62.839 6.055,53.749 2.166,40.733 C-0.202,32.807 0.658,24.434 4.587,17.156 C8.517,9.879 15.045,4.566 22.97,2.198 C25.864,1.334 28.85,0.895 31.846,0.895 C45.419,0.895 57.614,9.985 61.503,23.002 C63.872,30.927 63.012,39.298 59.082,46.578 C55.153,53.856 48.624,59.168 40.7,61.536 C37.805,62.401 34.818,62.839 31.823,62.839 L31.823,62.839 Z M31.846,6.348 C29.379,6.348 26.919,6.71 24.531,7.424 C18.002,9.375 12.623,13.75 9.386,19.748 C6.148,25.744 5.44,32.642 7.39,39.171 C10.595,49.895 20.642,57.386 31.823,57.386 C34.289,57.386 36.751,57.024 39.138,56.31 C45.668,54.36 51.046,49.984 54.284,43.986 C57.522,37.99 58.23,31.092 56.279,24.564 C53.074,13.839 43.027,6.348 31.846,6.348 L31.846,6.348 Z" id="Fill-4"></path>
                    <path d="M20.785,17.441 C20.785,18.797 19.686,19.897 18.329,19.897 C16.973,19.897 15.874,18.797 15.874,17.441 C15.874,16.085 16.973,14.986 18.329,14.986 C19.686,14.986 20.785,16.085 20.785,17.441" id="Fill-5"></path>
                    <path d="M40.429,40.768 C40.429,42.125 39.33,43.224 37.973,43.224 C36.617,43.224 35.518,42.125 35.518,40.768 C35.518,39.412 36.617,38.313 37.973,38.313 C39.33,38.313 40.429,39.412 40.429,40.768" id="Fill-6"></path>
                    <path d="M50.011,21.87 C50.011,23.209 48.926,24.294 47.588,24.294 C46.249,24.294 45.164,23.209 45.164,21.87 C45.164,20.532 46.249,19.447 47.588,19.447 C48.926,19.447 50.011,20.532 50.011,21.87" id="Fill-7"></path>
                </g>
            </g>
        </g>
    </g>
</svg>