<?xml version="1.0" encoding="UTF-8"?>
<svg width="300px" height="300px" viewBox="0 0 300 300" version="1.1" xmlns="http://www.w3.org/2000/svg" xmlns:xlink="http://www.w3.org/1999/xlink">
    <!-- Generator: Sketch 49 (51002) - http://www.bohemiancoding.com/sketch -->
    <title>StarsRight</title>
    <desc>Created with Sketch.</desc>
    <defs></defs>
    <g id="Landing-Page-2" stroke="none" stroke-width="1" fill="none" fill-rule="evenodd">
        <g id="StarsRight" fill="#BABEEF">
            <g transform="translate(57.000000, 46.000000)">
                <g id="SATURN" transform="translate(0.000000, 67.000000)">
                    <path d="M31.341,12.385 C28.088,12.385 25.442,9.739 25.442,6.486 C25.442,3.233 28.088,0.587 31.341,0.587 C34.594,0.587 37.239,3.233 37.239,6.486 C37.239,9.739 34.594,12.385 31.341,12.385 L31.341,12.385 Z M31.341,4.223 C30.093,4.223 29.078,5.238 29.078,6.486 C29.078,7.735 30.093,8.75 31.341,8.75 C32.589,8.75 33.604,7.735 33.604,6.486 C33.604,5.238 32.589,4.223 31.341,4.223 L31.341,4.223 Z" id="Fill-1"></path>
                    <path d="M29.523,73.436 C15.658,73.436 4.379,62.157 4.379,48.292 C4.379,34.428 15.658,23.148 29.523,23.148 C43.387,23.148 54.667,34.428 54.667,48.292 C54.667,62.157 43.387,73.436 29.523,73.436 L29.523,73.436 Z M29.523,28.601 C18.665,28.601 9.832,37.435 9.832,48.292 C9.832,59.15 18.665,67.983 29.523,67.983 C40.38,67.983 49.214,59.15 49.214,48.292 C49.214,37.435 40.38,28.601 29.523,28.601 L29.523,28.601 Z" id="Fill-2"></path>
                    <path d="M59.822,18.449 C56.208,15.107 47.653,18.011 37.751,25.102 C39.081,25.43 40.203,26.029 41.119,26.82 C47.625,22.423 52.909,20.662 55.121,22.707 C59.088,26.376 52.264,41.11 39.179,55.26 C26.094,69.409 11.702,77.616 7.735,73.947 C5.729,72.092 6.669,67.458 9.744,61.521 C8.53,60.669 7.616,59.521 7.007,58.216 C0.52,68.82 -1.823,77.764 1.838,81.149 C7.455,86.343 24.988,76.518 41,59.204 C57.012,41.889 65.439,23.643 59.822,18.449" id="Fill-3"></path>
                </g>
                <g id="STARS-Copy-2" transform="translate(95.000000, 0.000000)">
                    <path d="M3.054,46.661 C1.548,46.661 0.327,45.44 0.327,43.935 C0.327,42.429 1.548,41.208 3.054,41.208 C11.022,41.208 17.505,34.726 17.505,26.756 C17.505,25.25 18.726,24.029 20.232,24.029 C21.738,24.029 22.958,25.25 22.958,26.756 C22.958,37.731 14.029,46.661 3.054,46.661" id="Fill-1"></path>
                    <path d="M37.411,46.661 C26.435,46.661 17.505,37.731 17.505,26.756 C17.505,25.25 18.726,24.029 20.232,24.029 C21.738,24.029 22.958,25.25 22.958,26.756 C22.958,34.726 29.442,41.208 37.411,41.208 C38.917,41.208 40.137,42.429 40.137,43.935 C40.137,45.44 38.917,46.661 37.411,46.661" id="Fill-2"></path>
                    <path d="M20.232,63.838 C18.726,63.838 17.505,62.617 17.505,61.112 C17.505,50.137 26.435,41.208 37.411,41.208 C38.917,41.208 40.137,42.429 40.137,43.935 C40.137,45.44 38.917,46.661 37.411,46.661 C29.442,46.661 22.958,53.143 22.958,61.112 C22.958,62.617 21.738,63.838 20.232,63.838" id="Fill-3"></path>
                    <path d="M20.232,63.838 C18.726,63.838 17.505,62.617 17.505,61.112 C17.505,53.143 11.022,46.661 3.054,46.661 C1.548,46.661 0.327,45.44 0.327,43.935 C0.327,42.429 1.548,41.208 3.054,41.208 C14.029,41.208 22.958,50.137 22.958,61.112 C22.958,62.617 21.738,63.838 20.232,63.838" id="Fill-4"></path>
                    <path d="M32.612,16.799 C31.608,16.799 30.794,15.986 30.794,14.982 C30.794,13.977 31.608,13.164 32.612,13.164 C38.802,13.164 43.838,8.128 43.838,1.937 C43.838,0.932 44.652,0.119 45.656,0.119 C46.66,0.119 47.474,0.932 47.474,1.937 C47.474,10.132 40.807,16.799 32.612,16.799" id="Fill-5"></path>
                    <path d="M58.701,16.799 C50.505,16.799 43.838,10.132 43.838,1.937 C43.838,0.932 44.652,0.119 45.656,0.119 C46.66,0.119 47.474,0.932 47.474,1.937 C47.474,8.128 52.51,13.164 58.701,13.164 C59.705,13.164 60.518,13.977 60.518,14.982 C60.518,15.986 59.705,16.799 58.701,16.799" id="Fill-6"></path>
                    <path d="M45.656,29.844 C44.652,29.844 43.838,29.031 43.838,28.027 C43.838,19.831 50.505,13.164 58.701,13.164 C59.705,13.164 60.518,13.977 60.518,14.982 C60.518,15.986 59.705,16.799 58.701,16.799 C52.51,16.799 47.474,21.835 47.474,28.027 C47.474,29.031 46.66,29.844 45.656,29.844" id="Fill-7"></path>
                    <path d="M45.656,29.844 C44.652,29.844 43.838,29.031 43.838,28.027 C43.838,21.835 38.802,16.799 32.612,16.799 C31.608,16.799 30.794,15.986 30.794,14.982 C30.794,13.977 31.608,13.164 32.612,13.164 C40.807,13.164 47.474,19.831 47.474,28.027 C47.474,29.031 46.66,29.844 45.656,29.844" id="Fill-8"></path>
                </g>
                <g id="STARS-Copy-3" transform="translate(126.000000, 145.000000)">
                    <path d="M3.054,46.661 C1.548,46.661 0.327,45.44 0.327,43.935 C0.327,42.429 1.548,41.208 3.054,41.208 C11.022,41.208 17.505,34.726 17.505,26.756 C17.505,25.25 18.726,24.029 20.232,24.029 C21.738,24.029 22.958,25.25 22.958,26.756 C22.958,37.731 14.029,46.661 3.054,46.661" id="Fill-1"></path>
                    <path d="M37.411,46.661 C26.435,46.661 17.505,37.731 17.505,26.756 C17.505,25.25 18.726,24.029 20.232,24.029 C21.738,24.029 22.958,25.25 22.958,26.756 C22.958,34.726 29.442,41.208 37.411,41.208 C38.917,41.208 40.137,42.429 40.137,43.935 C40.137,45.44 38.917,46.661 37.411,46.661" id="Fill-2"></path>
                    <path d="M20.232,63.838 C18.726,63.838 17.505,62.617 17.505,61.112 C17.505,50.137 26.435,41.208 37.411,41.208 C38.917,41.208 40.137,42.429 40.137,43.935 C40.137,45.44 38.917,46.661 37.411,46.661 C29.442,46.661 22.958,53.143 22.958,61.112 C22.958,62.617 21.738,63.838 20.232,63.838" id="Fill-3"></path>
                    <path d="M20.232,63.838 C18.726,63.838 17.505,62.617 17.505,61.112 C17.505,53.143 11.022,46.661 3.054,46.661 C1.548,46.661 0.327,45.44 0.327,43.935 C0.327,42.429 1.548,41.208 3.054,41.208 C14.029,41.208 22.958,50.137 22.958,61.112 C22.958,62.617 21.738,63.838 20.232,63.838" id="Fill-4"></path>
                    <path d="M32.612,16.799 C31.608,16.799 30.794,15.986 30.794,14.982 C30.794,13.977 31.608,13.164 32.612,13.164 C38.802,13.164 43.838,8.128 43.838,1.937 C43.838,0.932 44.652,0.119 45.656,0.119 C46.66,0.119 47.474,0.932 47.474,1.937 C47.474,10.132 40.807,16.799 32.612,16.799" id="Fill-5"></path>
                    <path d="M58.701,16.799 C50.505,16.799 43.838,10.132 43.838,1.937 C43.838,0.932 44.652,0.119 45.656,0.119 C46.66,0.119 47.474,0.932 47.474,1.937 C47.474,8.128 52.51,13.164 58.701,13.164 C59.705,13.164 60.518,13.977 60.518,14.982 C60.518,15.986 59.705,16.799 58.701,16.799" id="Fill-6"></path>
                    <path d="M45.656,29.844 C44.652,29.844 43.838,29.031 43.838,28.027 C43.838,19.831 50.505,13.164 58.701,13.164 C59.705,13.164 60.518,13.977 60.518,14.982 C60.518,15.986 59.705,16.799 58.701,16.799 C52.51,16.799 47.474,21.835 47.474,28.027 C47.474,29.031 46.66,29.844 45.656,29.844" id="Fill-7"></path>
                    <path d="M45.656,29.844 C44.652,29.844 43.838,29.031 43.838,28.027 C43.838,21.835 38.802,16.799 32.612,16.799 C31.608,16.799 30.794,15.986 30.794,14.982 C30.794,13.977 31.608,13.164 32.612,13.164 C40.807,13.164 47.474,19.831 47.474,28.027 C47.474,29.031 46.66,29.844 45.656,29.844" id="Fill-8"></path>
                </g>
            </g>
        </g>
    </g>
</svg>